<?xml version="1.0" standalone="no"?>
<!DOCTYPE svg PUBLIC "-//W3C//DTD SVG 20010904//EN"
 "http://www.w3.org/TR/2001/REC-SVG-20010904/DTD/svg10.dtd">
<svg version="1.0" xmlns="http://www.w3.org/2000/svg"
 width="1920.000000pt" height="1452.000000pt" viewBox="0 0 1920.000000 1452.000000"
 preserveAspectRatio="xMidYMid meet">

<g transform="translate(0.000000,1452.000000) scale(0.100000,-0.100000)"
fill="#000000" stroke="none">
<path d="M12740 11190 c-141 -17 -205 -30 -208 -40 -2 -5 -14 -7 -27 -4 -26 6
-110 -18 -162 -47 -17 -10 -48 -21 -67 -25 -20 -3 -36 -10 -36 -15 0 -5 -7 -9
-15 -9 -8 0 -25 -6 -37 -12 -31 -18 -108 -89 -108 -101 0 -16 -51 -71 -85 -92
-65 -41 -168 -122 -228 -181 -34 -33 -70 -65 -80 -70 -17 -10 -93 -74 -149
-126 -16 -16 -32 -28 -35 -28 -4 0 -13 -7 -22 -16 -16 -16 -140 -107 -181
-134 -13 -8 -42 -32 -64 -52 -23 -21 -44 -38 -49 -38 -4 0 -38 -29 -75 -65
-37 -36 -70 -65 -74 -65 -14 0 -196 -141 -202 -156 -3 -8 -22 -22 -41 -30 -19
-8 -35 -18 -35 -23 0 -5 -12 -11 -28 -14 -15 -3 -38 -15 -51 -26 -13 -12 -29
-21 -35 -21 -6 0 -45 -36 -88 -80 -42 -44 -82 -80 -88 -80 -7 0 -24 -9 -38
-20 -98 -76 -173 -130 -179 -130 -3 0 -26 -17 -51 -37 -42 -34 -138 -102 -184
-129 -11 -6 -31 -22 -46 -36 -27 -24 -66 -52 -106 -75 -11 -7 -16 -13 -11 -14
6 0 1 -4 -10 -9 -23 -9 -33 -5 120 -50 191 -55 366 -131 537 -232 l68 -40 86
73 c48 41 164 139 259 219 94 80 214 181 266 225 52 43 166 140 254 214 88 74
187 157 220 185 33 28 92 78 131 111 39 33 107 90 150 127 500 421 564 467
747 543 294 121 594 139 765 45 66 -36 75 -25 47 60 -1 3 -5 19 -10 35 -4 17
-16 46 -27 65 -10 19 -18 40 -18 46 0 23 -52 129 -81 164 -57 69 -111 119
-154 140 -17 8 -38 20 -47 28 -9 8 -21 11 -27 8 -6 -4 -31 3 -56 14 -52 24
-224 34 -335 20z"/>
<path d="M15026 9918 c-40 -108 -69 -152 -115 -173 -22 -10 -43 -27 -47 -38
-9 -29 -134 -148 -146 -141 -7 5 -8 2 -4 -5 10 -16 -19 -48 -65 -72 -20 -10
-39 -25 -42 -33 -3 -8 -18 -20 -34 -28 -15 -7 -34 -25 -41 -41 -7 -15 -22 -32
-33 -37 -10 -6 -19 -15 -19 -20 0 -6 -90 -100 -200 -210 -110 -110 -200 -204
-200 -209 0 -9 -57 -71 -65 -71 -2 0 -19 -14 -37 -30 -18 -17 -45 -36 -60 -42
-15 -7 -29 -21 -32 -31 -2 -10 -14 -21 -25 -24 -12 -3 -21 -12 -21 -19 0 -8
-6 -14 -13 -14 -8 0 -19 -11 -25 -25 -6 -14 -18 -25 -27 -25 -8 0 -15 -6 -15
-13 0 -19 -83 -97 -103 -97 -9 0 -17 -7 -17 -15 0 -9 -6 -18 -14 -21 -8 -3
-42 -32 -77 -65 -34 -32 -66 -59 -71 -59 -5 0 -13 -11 -18 -24 -5 -14 -22 -33
-37 -43 -82 -53 -183 -144 -367 -332 -43 -45 -83 -81 -87 -81 -5 0 -9 -6 -9
-12 0 -18 -65 -68 -88 -68 -11 0 -22 -9 -25 -21 -3 -11 -15 -23 -26 -26 -12
-3 -21 -12 -21 -19 0 -8 -6 -14 -13 -14 -7 0 -17 -10 -22 -22 -6 -13 -18 -24
-28 -26 -10 -2 -34 -20 -52 -40 -85 -94 -103 -112 -111 -112 -5 0 -30 -20 -56
-44 -26 -24 -56 -47 -67 -51 -12 -3 -21 -11 -21 -16 0 -5 -7 -9 -15 -9 -8 0
-15 -4 -15 -9 0 -12 -55 -71 -67 -71 -4 0 -19 -16 -33 -35 -14 -19 -32 -37
-40 -40 -8 -3 -28 -23 -44 -45 -17 -22 -36 -40 -43 -40 -7 0 -13 -5 -13 -10 0
-6 -32 -41 -71 -78 -40 -37 -88 -84 -108 -105 -20 -21 -49 -45 -66 -53 -59
-27 -100 -57 -137 -97 -21 -22 -38 -44 -38 -49 0 -4 -6 -8 -14 -8 -8 0 -23
-11 -34 -25 -11 -14 -24 -25 -28 -25 -5 -1 -25 -21 -44 -45 -19 -25 -50 -52
-67 -61 -18 -8 -33 -21 -33 -27 0 -7 -16 -19 -34 -25 -19 -7 -38 -21 -41 -32
-8 -24 -59 -80 -74 -80 -6 0 -11 -6 -11 -13 0 -7 -15 -21 -32 -31 -18 -10 -49
-36 -69 -57 -20 -22 -42 -39 -48 -39 -6 0 -11 -4 -11 -10 0 -5 -5 -10 -11 -10
-6 0 -40 -28 -75 -62 -199 -198 -231 -228 -237 -221 -4 3 -7 0 -7 -8 -1 -25
-125 -107 -153 -100 -5 1 -6 -2 -3 -7 2 -4 -12 -17 -32 -27 -20 -11 -39 -22
-42 -25 -13 -16 -78 -49 -83 -44 -3 4 -20 -5 -37 -20 -17 -14 -38 -26 -46 -26
-8 0 -27 -11 -41 -24 -15 -14 -44 -27 -69 -31 -27 -4 -44 -11 -44 -20 0 -9
-19 -16 -55 -20 -30 -4 -55 -11 -55 -16 0 -5 -5 -9 -10 -9 -6 0 -29 -9 -52
-20 -22 -11 -68 -25 -102 -31 -34 -6 -70 -14 -81 -19 -52 -22 -100 -30 -225
-35 -74 -4 -138 -9 -142 -11 -16 -10 -306 17 -381 36 -44 11 -102 20 -128 20
-42 0 -49 3 -49 20 0 14 -7 20 -24 20 -35 0 -56 10 -56 26 0 9 -11 14 -30 14
-16 0 -30 5 -30 10 0 6 -7 10 -16 10 -8 0 -21 6 -28 13 -7 6 -31 27 -54 46
-23 18 -44 42 -47 52 -4 12 -19 22 -37 26 -29 6 -30 7 -12 20 18 14 18 15 -6
35 -14 11 -25 24 -25 29 0 6 -11 15 -25 22 -22 11 -69 79 -70 100 0 5 14 -5
30 -21 17 -17 30 -35 30 -41 0 -6 14 -11 32 -11 30 0 31 0 11 18 -11 9 -26 32
-34 50 -8 18 -22 35 -32 38 -16 5 -18 16 -16 92 2 53 -2 96 -9 109 -13 23 -16
81 -6 107 3 9 17 16 30 16 19 0 24 5 24 25 0 21 6 26 40 31 22 4 40 10 40 15
0 5 18 9 40 9 28 0 40 4 40 14 0 9 17 16 53 21 28 4 66 13 83 20 18 7 66 16
108 20 47 5 76 12 76 19 0 17 53 46 83 46 14 0 29 5 32 10 3 6 16 10 28 10 12
0 28 9 34 20 7 10 32 25 55 31 24 7 47 16 53 21 5 4 17 8 27 8 12 0 15 5 11
16 -4 12 0 14 21 8 16 -4 26 -2 26 5 0 6 -5 11 -11 11 -5 0 -7 5 -4 10 4 6 15
8 26 5 13 -4 19 -2 19 9 0 9 8 16 19 16 11 0 23 5 26 10 3 6 18 10 33 10 28 1
97 28 75 29 -7 1 -13 7 -13 15 0 21 -22 25 -155 24 -145 -1 -205 15 -264 72
-118 115 -99 397 47 687 l57 113 61 0 c71 0 208 -36 302 -80 204 -95 345 -295
368 -525 4 -36 10 -68 14 -70 5 -3 57 32 116 77 107 80 130 99 289 235 44 38
94 79 110 91 17 13 48 40 70 61 22 21 67 59 100 86 33 26 85 71 116 99 30 28
116 101 190 163 74 62 154 129 178 150 l44 39 -23 44 c-38 74 -104 170 -117
170 -7 0 -13 5 -13 11 0 5 -5 7 -12 3 -8 -5 -9 -2 -4 12 4 10 4 15 0 12 -7 -7
-25 5 -52 36 -41 47 -98 96 -110 96 -7 0 -11 3 -9 8 3 4 -15 5 -39 3 -39 -3
-43 -1 -37 15 6 16 5 17 -9 4 -9 -8 -12 -16 -7 -18 5 -2 9 -8 9 -13 0 -6 -23
-9 -52 -8 -34 2 -64 -3 -83 -13 -17 -9 -47 -19 -68 -23 -20 -4 -37 -11 -37
-16 0 -5 -5 -9 -11 -9 -6 0 -22 -9 -36 -20 -14 -11 -34 -20 -44 -20 -22 0
-129 -56 -144 -75 -6 -7 -28 -16 -48 -20 -20 -4 -37 -13 -37 -19 0 -15 -85
-46 -127 -46 -18 0 -33 -4 -33 -9 0 -4 -54 -14 -120 -21 -66 -7 -120 -16 -120
-20 0 -7 -63 -21 -145 -34 -16 -3 -59 -12 -95 -21 -36 -9 -99 -20 -140 -25
-144 -16 -245 -31 -284 -41 -21 -6 -45 -8 -53 -4 -9 3 -21 0 -29 -6 -7 -6 -37
-14 -66 -19 -65 -10 -149 -34 -192 -54 -54 -25 -140 -62 -176 -76 -19 -8 -51
-24 -70 -37 -19 -13 -39 -23 -45 -23 -6 0 -37 -27 -70 -61 -33 -33 -80 -75
-105 -92 -25 -17 -51 -37 -58 -44 -7 -7 -17 -13 -22 -13 -14 0 -109 -102 -122
-132 -7 -15 -17 -28 -23 -28 -14 0 -90 -71 -98 -92 -3 -9 -21 -25 -39 -34 -18
-9 -58 -39 -89 -66 -30 -26 -61 -48 -67 -48 -7 0 -12 -4 -12 -8 0 -16 -71 -83
-81 -77 -5 4 -9 2 -9 -3 0 -9 -64 -42 -82 -42 -12 0 -16 -4 -85 -70 -23 -22
-46 -40 -51 -40 -6 0 -19 -18 -29 -39 -10 -22 -28 -45 -41 -52 -15 -9 -22 -19
-19 -31 3 -10 2 -16 -3 -13 -4 3 -13 -2 -20 -10 -7 -8 -18 -15 -24 -15 -6 0
-18 -10 -26 -22 -26 -38 -62 -68 -113 -93 -26 -14 -54 -31 -61 -38 -8 -7 -37
-33 -66 -58 -30 -24 -83 -73 -119 -109 -36 -36 -83 -76 -103 -90 -20 -14 -40
-35 -43 -47 -3 -13 -12 -23 -20 -23 -8 0 -15 -7 -15 -15 0 -8 -5 -15 -11 -15
-6 0 -20 -11 -30 -24 -10 -13 -30 -27 -44 -30 -14 -4 -25 -12 -25 -19 -1 -14
-28 -47 -52 -62 -77 -48 -107 -73 -108 -87 0 -10 -4 -18 -8 -18 -4 0 -28 -18
-52 -40 -147 -132 -188 -169 -228 -207 -24 -24 -48 -43 -53 -43 -14 0 -59 -50
-59 -65 0 -8 -9 -15 -20 -15 -11 0 -20 -4 -20 -8 0 -5 -27 -37 -60 -71 -33
-35 -60 -67 -60 -72 0 -5 -6 -9 -13 -9 -7 0 -40 -26 -72 -57 -57 -55 -119
-103 -132 -103 -3 0 -21 -18 -40 -40 -19 -22 -41 -40 -49 -40 -8 0 -14 -7 -14
-15 0 -15 -57 -75 -71 -75 -5 0 -9 -6 -9 -13 0 -15 -83 -107 -97 -107 -10 0
-72 -100 -92 -150 -8 -19 -23 -41 -33 -48 -10 -7 -18 -19 -18 -26 0 -15 -41
-119 -50 -126 -3 -3 -12 -21 -20 -40 -8 -19 -16 -37 -20 -40 -19 -17 -50 -107
-59 -175 -21 -148 -8 -428 20 -460 5 -5 9 -21 9 -36 0 -15 6 -34 14 -41 7 -8
17 -25 20 -38 4 -14 16 -44 27 -67 10 -24 19 -51 19 -61 0 -11 9 -29 20 -42
12 -13 18 -30 15 -37 -2 -8 -1 -11 5 -8 5 3 19 -8 31 -25 13 -16 28 -30 33
-30 6 0 17 -9 24 -20 7 -11 23 -20 37 -20 17 0 29 -9 40 -30 9 -17 21 -30 28
-30 6 0 25 -11 41 -25 17 -14 41 -28 55 -32 14 -3 31 -10 38 -15 6 -5 59 -12
117 -15 91 -5 109 -4 125 11 11 10 32 16 54 14 30 -2 42 5 76 39 30 30 41 49
41 71 0 17 4 32 9 34 5 1 12 21 15 44 6 35 4 45 -18 71 -14 17 -26 35 -26 40
0 6 -17 18 -37 28 -98 47 -135 67 -148 81 -5 6 -46 36 -90 67 -90 63 -189 160
-230 226 -53 86 -78 176 -83 302 -6 146 16 242 88 384 89 179 154 247 670 697
151 132 282 248 290 257 8 9 58 52 110 96 96 81 540 466 595 517 102 93 430
366 436 362 4 -2 12 -28 19 -56 45 -193 140 -411 253 -579 57 -84 186 -233
250 -288 58 -49 208 -161 217 -161 5 0 53 -26 107 -59 95 -57 139 -77 156 -73
5 1 6 -2 2 -8 -3 -5 3 -10 14 -10 34 0 16 -22 -91 -116 -232 -203 -360 -317
-508 -449 -87 -77 -199 -177 -251 -222 -52 -45 -110 -96 -129 -113 -19 -18
-50 -44 -68 -58 -18 -14 -31 -31 -28 -38 3 -8 0 -11 -10 -7 -9 3 -14 0 -12 -8
2 -8 -5 -13 -15 -13 -14 2 -15 -1 -6 -12 9 -12 9 -13 -3 -9 -9 4 -28 -6 -45
-24 -17 -17 -33 -28 -35 -25 -3 2 -13 -6 -24 -18 -10 -12 -14 -18 -7 -15 6 4
13 4 16 0 2 -5 2 -3 1 4 -2 7 1 15 6 18 6 4 10 -3 10 -14 0 -12 5 -21 10 -21
6 0 9 3 9 8 -3 19 2 23 16 12 12 -10 15 -10 15 0 0 9 11 11 35 7 19 -3 35 -2
35 3 0 5 10 12 23 17 21 7 28 9 52 12 6 1 3 6 -5 11 -12 8 -11 10 6 10 12 0
27 7 34 15 7 8 19 15 27 15 8 0 23 10 33 23 11 14 47 32 92 46 40 13 77 28 82
32 6 5 24 9 40 9 17 0 58 14 91 30 58 29 188 78 229 86 11 2 22 7 25 12 3 4
26 14 51 21 25 7 50 17 55 21 6 5 101 12 212 16 187 6 204 6 230 -12 15 -10
36 -17 46 -16 9 2 17 -2 17 -7 0 -7 30 -11 80 -11 47 0 80 -4 80 -10 0 -5 8
-10 19 -10 10 0 30 -11 45 -25 15 -14 33 -25 40 -25 35 0 35 -100 0 -174 -14
-30 -32 -60 -40 -67 -8 -6 -14 -18 -14 -26 0 -7 -7 -16 -15 -19 -8 -4 -15 -13
-15 -21 0 -8 -11 -24 -25 -35 -14 -11 -22 -24 -19 -30 4 -6 -20 -36 -52 -67
-57 -54 -164 -170 -164 -177 0 -14 -230 -235 -239 -230 -6 4 -9 1 -5 -7 3 -9
-21 -38 -67 -78 -39 -35 -92 -83 -117 -106 -26 -24 -52 -43 -60 -43 -7 0 -11
-4 -8 -8 3 -5 -28 -43 -69 -85 -41 -42 -75 -79 -75 -82 0 -7 -70 -78 -90 -90
-62 -37 -184 -133 -253 -197 -22 -21 -44 -38 -48 -38 -5 0 -33 -24 -64 -54
-30 -30 -65 -58 -77 -62 -28 -9 -108 -83 -108 -101 0 -8 -12 -13 -30 -13 -16
0 -33 -6 -37 -13 -10 -15 -45 -31 -103 -47 -52 -14 -175 -74 -185 -90 -4 -6
-16 -8 -28 -5 -17 5 -19 4 -7 -4 14 -10 7 -16 -14 -12 -5 1 -19 -8 -31 -19
-17 -16 -30 -19 -51 -15 -23 5 -26 4 -14 -5 12 -9 6 -10 -28 -8 -29 3 -42 0
-42 -9 0 -8 -13 -13 -33 -13 -32 0 -75 -22 -90 -47 -5 -8 -27 -13 -57 -13 -29
0 -50 -5 -50 -11 0 -6 -9 -8 -20 -4 -11 3 -20 2 -20 -2 0 -5 -45 -19 -100 -32
-84 -19 -100 -26 -100 -42 0 -20 -24 -26 -35 -9 -4 7 -42 10 -98 8 -51 -1
-119 1 -153 6 -48 6 -64 5 -76 -7 -8 -8 -26 -17 -39 -20 -21 -4 -21 -5 6 -6
26 -2 27 -3 10 -11 -18 -8 -17 -9 6 -9 15 -1 32 -8 39 -16 13 -16 75 -21 84
-7 3 5 19 7 36 4 18 -2 30 0 30 7 0 6 17 11 40 11 22 0 40 -4 40 -10 0 -5 8
-10 18 -10 14 0 15 2 2 10 -8 5 -10 10 -5 11 6 0 1 4 -10 9 -20 9 -20 9 0 9
11 1 26 -8 33 -19 7 -11 22 -20 35 -19 21 0 21 1 2 9 -13 6 -15 9 -5 9 8 0 21
-3 29 -8 8 -5 38 -3 74 5 33 8 68 12 78 9 11 -4 19 -3 19 2 0 4 18 9 40 10 61
4 200 40 375 98 201 67 327 122 509 224 131 74 203 124 364 255 68 56 140 115
161 131 84 67 614 525 991 855 129 113 287 250 350 304 63 55 162 141 220 192
58 51 206 181 330 290 300 263 623 551 687 612 171 166 313 359 434 592 31 58
50 78 205 205 179 146 235 193 653 546 140 118 315 266 390 329 75 63 228 193
341 290 113 96 275 234 359 305 235 200 792 677 942 806 120 105 290 271 344
339 180 223 231 302 347 535 97 195 196 466 201 552 1 24 5 43 8 43 4 0 9 16
11 35 6 55 -7 41 -36 -37z m-5853 -3305 c-7 -2 -19 -2 -25 0 -7 3 -2 5 12 5
14 0 19 -2 13 -5z m-208 -69 c-9 -9 -19 -13 -23 -10 -3 4 0 11 8 16 24 15 33
11 15 -6z m-65 -8 c0 -3 -4 -8 -10 -11 -5 -3 -10 -1 -10 4 0 6 5 11 10 11 6 0
10 -2 10 -4z m-363 -88 c-3 -8 -6 -5 -6 6 -1 11 2 17 5 13 3 -3 4 -12 1 -19z
m-60 -300 c-3 -7 -5 -2 -5 12 0 14 2 19 5 13 2 -7 2 -19 0 -25z m1613 -726 c0
-21 -333 -72 -467 -72 -95 0 -72 10 33 15 113 5 387 46 432 64 1 1 2 -3 2 -7z
m-751 -50 c52 -5 102 -7 112 -5 9 3 20 0 23 -6 5 -7 -3 -11 -22 -11 -55 0
-247 22 -255 29 -4 4 5 6 20 4 16 -1 70 -7 122 -11z m-2632 -2958 c-3 -3 -12
-4 -19 -1 -8 3 -5 6 6 6 11 1 17 -2 13 -5z"/>
<path d="M10875 8490 c-3 -5 -2 -10 4 -10 5 0 13 5 16 10 3 6 2 10 -4 10 -5 0
-13 -4 -16 -10z"/>
<path d="M10920 8460 c0 -5 5 -10 10 -10 6 0 10 5 10 10 0 6 -4 10 -10 10 -5
0 -10 -4 -10 -10z"/>
<path d="M10720 8429 c0 -5 5 -7 10 -4 6 3 10 8 10 11 0 2 -4 4 -10 4 -5 0
-10 -5 -10 -11z"/>
<path d="M10525 8360 c3 -5 13 -10 21 -10 8 0 12 5 9 10 -3 6 -13 10 -21 10
-8 0 -12 -4 -9 -10z"/>
<path d="M10305 8250 c-3 -5 -1 -10 4 -10 6 0 11 5 11 10 0 6 -2 10 -4 10 -3
0 -8 -4 -11 -10z"/>
<path d="M10148 8203 c7 -3 16 -2 19 1 4 3 -2 6 -13 5 -11 0 -14 -3 -6 -6z"/>
<path d="M9680 6858 c0 -4 -8 -4 -17 -1 -14 5 -13 3 3 -14 13 -13 23 -17 31
-10 7 5 11 13 8 17 -3 5 1 10 7 13 7 3 3 4 -9 4 -13 -1 -23 -5 -23 -9z"/>
<path d="M8705 5880 c3 -5 8 -10 11 -10 2 0 4 5 4 10 0 6 -5 10 -11 10 -5 0
-7 -4 -4 -10z"/>
<path d="M8800 5800 c0 -5 5 -10 11 -10 5 0 7 5 4 10 -3 6 -8 10 -11 10 -2 0
-4 -4 -4 -10z"/>
<path d="M8900 5730 c0 -5 5 -10 11 -10 5 0 7 5 4 10 -3 6 -8 10 -11 10 -2 0
-4 -4 -4 -10z"/>
<path d="M8840 5713 c8 -3 21 -10 28 -16 8 -7 12 -5 12 7 0 11 -8 16 -27 15
-16 0 -22 -3 -13 -6z"/>
<path d="M4370 5454 c-6 -14 -10 -31 -11 -37 0 -7 -4 -3 -9 8 -8 18 -9 18 -9
2 -1 -10 -5 -16 -10 -12 -5 3 -12 2 -15 -3 -2 -4 7 -9 20 -10 15 -1 27 5 31
15 6 15 7 14 14 -3 5 -13 7 -5 7 24 0 48 -5 52 -18 16z"/>
<path d="M4304 5376 c-3 -8 -1 -23 5 -34 9 -16 7 -19 -10 -18 -15 1 -24 -9
-34 -34 -7 -19 -24 -66 -39 -105 -33 -92 -83 -290 -103 -418 -20 -128 -23
-457 -5 -572 31 -187 53 -279 104 -425 54 -158 168 -375 257 -492 20 -26 47
-63 61 -82 14 -20 33 -38 43 -42 9 -3 15 -8 13 -12 -5 -9 21 -33 31 -30 5 1 9
-6 11 -16 5 -26 49 -69 63 -60 8 5 9 3 4 -5 -8 -14 50 -81 70 -81 7 0 22 -13
35 -30 13 -16 27 -30 31 -30 4 0 27 -18 51 -39 23 -22 46 -37 50 -35 4 3 8 1
8 -4 0 -15 122 -96 142 -95 10 1 18 -3 18 -8 0 -6 5 -7 10 -4 6 4 17 1 25 -5
11 -9 15 -9 15 -1 0 6 -8 14 -17 17 -10 3 -26 10 -35 15 -24 12 -31 11 -22 -3
5 -7 3 -8 -6 -3 -10 6 -9 11 5 22 11 7 13 13 7 13 -7 0 -12 16 -12 40 0 33 -3
40 -20 40 -11 0 -20 7 -20 15 0 8 -4 15 -9 15 -5 0 -25 15 -44 33 -53 52 -79
67 -114 67 -29 0 -63 21 -63 39 0 4 5 12 12 19 9 9 9 12 0 12 -6 0 -15 -8 -21
-17 -8 -16 -10 -14 -16 10 -4 15 -5 33 -2 41 3 7 -11 30 -30 50 -19 20 -32 36
-27 36 4 0 1 6 -8 13 -35 27 -121 141 -110 145 7 2 12 9 12 15 0 5 -3 7 -7 4
-7 -7 -63 85 -63 103 0 6 -11 36 -25 66 -14 30 -25 57 -25 59 0 3 -23 46 -51
96 -49 86 -51 92 -47 154 1 36 -1 65 -6 65 -4 0 -6 10 -4 23 2 13 -1 28 -7 34
-15 13 -40 167 -31 182 4 6 2 11 -3 11 -15 0 -14 57 0 62 7 2 3 20 -11 50 -20
43 -21 52 -10 119 8 54 8 74 -1 79 -7 5 -9 26 -4 66 4 33 8 127 9 209 1 114 5
156 16 174 12 18 12 25 3 28 -15 5 -17 75 -3 89 5 5 10 81 11 169 l1 160 -24
6 c-16 4 -22 12 -21 27 3 25 -5 29 -13 8z"/>
<path d="M4382 5300 c0 -14 2 -19 5 -12 2 6 2 18 0 25 -3 6 -5 1 -5 -13z"/>
<path d="M4370 4910 c0 -5 5 -10 10 -10 6 0 10 5 10 10 0 6 -4 10 -10 10 -5 0
-10 -4 -10 -10z"/>
<path d="M8598 4738 c25 -6 59 -6 85 0 37 8 33 9 -43 9 -76 0 -80 -1 -42 -9z"/>
<path d="M8560 4700 c0 -5 7 -7 15 -4 8 4 15 8 15 10 0 2 -7 4 -15 4 -8 0 -15
-4 -15 -10z"/>
<path d="M8690 4706 c0 -10 28 -13 41 -5 10 6 7 9 -13 9 -16 0 -28 -2 -28 -4z"/>
<path d="M8978 4703 c7 -3 16 -2 19 1 4 3 -2 6 -13 5 -11 0 -14 -3 -6 -6z"/>
<path d="M8408 4673 c7 -3 16 -2 19 1 4 3 -2 6 -13 5 -11 0 -14 -3 -6 -6z"/>
<path d="M8313 4633 c9 -2 25 -2 35 0 9 3 1 5 -18 5 -19 0 -27 -2 -17 -5z"/>
<path d="M4351 4543 c-1 -6 -4 -20 -7 -30 -5 -17 -5 -17 6 0 6 10 9 23 6 30
-3 9 -5 9 -5 0z"/>
<path d="M8000 4530 c0 -5 5 -10 10 -10 6 0 10 5 10 10 0 6 -4 10 -10 10 -5 0
-10 -4 -10 -10z"/>
<path d="M7910 4485 c0 -8 2 -15 4 -15 2 0 6 7 10 15 3 8 1 15 -4 15 -6 0 -10
-7 -10 -15z"/>
<path d="M7860 4450 c0 -5 5 -10 10 -10 6 0 10 5 10 10 0 6 -4 10 -10 10 -5 0
-10 -4 -10 -10z"/>
<path d="M7636 4361 c-4 -5 3 -7 14 -4 23 6 26 13 6 13 -8 0 -17 -4 -20 -9z"/>
<path d="M7446 4290 c-33 -34 -35 -38 -13 -27 14 6 32 22 38 34 7 12 16 20 21
17 5 -3 3 -13 -4 -22 -12 -15 -11 -16 5 -3 13 10 15 17 6 27 -6 8 -12 14 -13
14 0 0 -19 -18 -40 -40z"/>
<path d="M7491 4271 c-13 -10 -19 -21 -14 -24 13 -8 47 17 42 31 -3 7 -12 5
-28 -7z"/>
<path d="M7424 4239 c-3 -6 -12 -8 -20 -5 -8 3 -23 -3 -34 -14 -11 -11 -18
-20 -15 -20 3 0 -10 -14 -30 -31 -19 -17 -35 -36 -35 -43 0 -6 5 -4 11 4 8 11
12 12 16 3 2 -7 9 -13 15 -13 7 0 6 5 -1 14 -9 10 -7 17 6 27 15 12 16 12 10
-3 -10 -27 5 -28 38 -2 17 13 25 24 20 24 -6 0 -16 -5 -23 -12 -9 -9 -15 -9
-24 0 -8 8 -4 14 16 23 16 8 25 18 22 26 -4 10 -1 11 13 4 13 -7 24 -6 36 3
16 11 16 13 2 19 -9 3 -19 2 -23 -4z"/>
<path d="M7250 4120 c0 -5 5 -10 11 -10 7 0 9 -11 6 -27 -5 -26 -4 -26 9 -8
18 25 18 28 -6 43 -12 7 -20 8 -20 2z"/>
<path d="M7221 4096 c-18 -21 7 -33 25 -12 8 9 9 11 2 6 -19 -15 -32 -12 -18
5 7 8 10 15 7 15 -2 0 -10 -6 -16 -14z"/>
<path d="M7221 4051 c-10 -7 -7 -9 12 -8 14 1 23 5 20 10 -6 9 -15 9 -32 -2z"/>
<path d="M7191 4024 c0 -11 3 -14 6 -6 3 7 2 16 -1 19 -3 4 -6 -2 -5 -13z"/>
<path d="M4561 3434 c0 -11 3 -14 6 -6 3 7 2 16 -1 19 -3 4 -6 -2 -5 -13z"/>
<path d="M5150 2780 c0 -13 20 -13 40 0 12 8 9 10 -12 10 -16 0 -28 -4 -28
-10z"/>
<path d="M5208 2763 c7 -3 16 -2 19 1 4 3 -2 6 -13 5 -11 0 -14 -3 -6 -6z"/>
<path d="M5160 2750 c0 -5 9 -14 20 -20 19 -10 20 -10 8 9 -13 22 -28 28 -28
11z"/>
<path d="M5305 2690 c-3 -5 1 -10 10 -10 9 0 13 5 10 10 -3 6 -8 10 -10 10 -2
0 -7 -4 -10 -10z"/>
<path d="M5155 2670 c7 -12 75 -33 82 -26 4 3 -1 6 -9 6 -9 0 -18 5 -20 11 -2
6 -16 13 -31 14 -15 2 -25 -1 -22 -5z"/>
<path d="M5240 2670 c-8 -5 -10 -10 -5 -10 6 0 17 5 25 10 8 5 11 10 5 10 -5
0 -17 -5 -25 -10z"/>
<path d="M5250 2640 c-9 -16 -8 -19 6 -13 12 4 15 3 10 -5 -4 -7 -3 -12 2 -12
6 0 9 11 8 25 -1 30 -11 32 -26 5z"/>
<path d="M5360 2630 c0 -5 5 -10 11 -10 5 0 7 5 4 10 -3 6 -8 10 -11 10 -2 0
-4 -4 -4 -10z"/>
<path d="M5415 2591 c3 -5 -5 -12 -17 -14 l-23 -4 23 -2 c13 0 21 -5 18 -10
-3 -5 1 -11 9 -15 16 -6 16 14 0 26 -6 5 -5 8 3 8 7 0 10 5 7 10 -3 6 -11 10
-16 10 -6 0 -8 -4 -4 -9z"/>
<path d="M5498 2570 c12 -5 22 -15 22 -21 0 -7 2 -10 5 -7 12 11 -9 38 -29 37
-21 0 -21 0 2 -9z"/>
<path d="M5475 2550 c3 -5 14 -10 23 -10 15 0 15 2 2 10 -20 13 -33 13 -25 0z"/>
<path d="M5592 2548 c5 -15 28 -23 28 -10 0 5 -7 13 -16 16 -10 4 -14 1 -12
-6z"/>
<path d="M5495 2515 c38 -18 64 -20 48 -4 -6 6 -26 13 -45 14 l-33 3 30 -13z"/>
<path d="M5640 2519 c0 -7 -14 -9 -40 -5 -23 3 -40 1 -40 -4 0 -6 8 -10 18
-10 14 0 15 -2 2 -10 -9 -6 -10 -10 -3 -10 6 0 14 4 17 9 12 19 69 18 88 -1
20 -20 38 -24 38 -8 0 6 -9 10 -21 10 -11 0 -17 5 -14 10 3 6 1 10 -5 10 -6 0
-8 5 -5 10 3 6 -3 10 -14 10 -12 0 -21 -5 -21 -11z"/>
<path d="M5727 2511 c-17 -6 -16 -8 7 -19 16 -7 26 -8 26 -2 0 6 -6 10 -12 10
-9 0 -8 4 2 10 17 11 4 12 -23 1z"/>
<path d="M5614 2478 c-4 -6 -3 -8 4 -4 6 3 34 -3 62 -14 61 -24 67 -24 67 -5
0 8 -4 15 -9 15 -4 0 -8 -4 -8 -10 0 -5 -21 0 -46 10 -53 23 -60 24 -70 8z"/>
<path d="M5920 2479 c0 -5 19 -9 42 -9 49 0 47 5 -4 13 -21 3 -38 2 -38 -4z"/>
<path d="M5775 2430 c23 -10 71 -13 62 -4 -3 4 -23 8 -44 10 -29 2 -33 1 -18
-6z"/>
<path d="M5855 2430 c-3 -6 1 -13 10 -16 21 -9 26 -2 10 13 -9 8 -16 9 -20 3z"/>
<path d="M6188 2403 c6 -2 18 -2 25 0 6 3 1 5 -13 5 -14 0 -19 -2 -12 -5z"/>
</g>
</svg>
