<?xml version="1.0" standalone="no"?>
<!DOCTYPE svg PUBLIC "-//W3C//DTD SVG 20010904//EN"
 "http://www.w3.org/TR/2001/REC-SVG-20010904/DTD/svg10.dtd">
<svg version="1.0" xmlns="http://www.w3.org/2000/svg"
 width="512.000000pt" height="512.000000pt" viewBox="0 0 512.000000 512.000000"
 preserveAspectRatio="xMidYMid meet">

<g transform="translate(0.000000,512.000000) scale(0.100000,-0.100000)"
fill="#000000" stroke="none">
<path d="M1175 4805 c-269 -43 -503 -154 -720 -341 -256 -223 -434 -642 -452
-1064 -8 -210 28 -393 113 -579 114 -249 351 -495 625 -649 82 -47 261 -116
374 -145 213 -55 113 -52 2055 -51 1665 1 1808 2 1837 18 62 32 73 104 24 158
l-29 33 -339 3 c-186 1 -1004 6 -1818 11 -1437 8 -1483 9 -1575 29 -497 107
-880 430 -989 832 -75 275 -25 646 126 932 241 456 823 672 1338 495 421 -145
695 -496 696 -893 1 -229 -58 -398 -200 -577 -124 -156 -297 -248 -495 -263
-296 -23 -590 158 -660 406 -52 186 -3 409 118 534 144 148 393 158 544 22 62
-56 85 -112 86 -210 0 -103 -21 -170 -72 -219 -45 -44 -82 -58 -148 -58 -58 0
-100 16 -161 62 -50 38 -107 42 -153 9 -34 -24 -56 -85 -45 -127 9 -37 82
-106 145 -138 280 -142 600 13 666 324 18 86 17 200 -1 280 -55 231 -276 401
-545 418 -179 11 -351 -56 -479 -186 -89 -89 -132 -159 -172 -273 -38 -113
-53 -214 -46 -328 7 -119 26 -193 76 -295 99 -202 293 -355 546 -431 80 -24
107 -27 240 -28 110 0 168 4 217 17 183 46 332 129 459 258 351 354 428 903
189 1347 -155 287 -478 538 -813 632 -170 48 -393 62 -562 35z"/>
<path d="M1688 1594 c-57 -31 -80 -130 -41 -182 11 -15 36 -35 57 -46 99 -49
210 52 174 159 -24 73 -119 108 -190 69z"/>
<path d="M2329 1587 c-126 -85 -9 -288 127 -221 73 36 97 110 60 182 -32 63
-124 82 -187 39z"/>
<path d="M2985 1577 c-57 -57 -59 -132 -4 -186 57 -58 151 -49 197 19 19 29
23 44 19 84 -4 41 -11 55 -41 83 -31 28 -43 33 -87 33 -45 0 -55 -4 -84 -33z"/>
<path d="M3626 1589 c-78 -61 -72 -170 13 -217 45 -26 69 -27 116 -8 92 39
101 179 15 230 -40 23 -111 21 -144 -5z"/>
<path d="M4265 1577 c-57 -57 -59 -132 -4 -186 57 -58 151 -49 197 19 19 29
23 44 19 84 -4 41 -11 55 -41 83 -31 28 -43 33 -87 33 -45 0 -55 -4 -84 -33z"/>
<path d="M1263 1075 c-64 -28 -93 -123 -57 -185 24 -39 65 -60 119 -60 40 0
52 5 80 33 64 64 54 152 -24 204 -39 26 -72 28 -118 8z"/>
<path d="M1911 1072 c-69 -35 -93 -111 -57 -180 46 -89 193 -79 232 15 28 66
-4 141 -72 169 -44 18 -62 18 -103 -4z"/>
<path d="M2585 1078 c-95 -52 -111 -158 -34 -223 34 -28 106 -34 147 -11 60
33 80 122 42 184 -32 51 -108 76 -155 50z"/>
<path d="M3203 1070 c-117 -71 -75 -240 60 -240 79 0 127 50 127 133 0 52 -27
93 -76 113 -45 19 -73 17 -111 -6z"/>
<path d="M3865 1078 c-95 -52 -111 -158 -34 -223 34 -28 106 -34 147 -11 60
33 80 122 42 184 -32 51 -108 76 -155 50z"/>
<path d="M723 541 c-87 -55 -79 -188 12 -227 47 -19 84 -18 122 6 71 43 84
144 25 203 -40 40 -111 48 -159 18z"/>
<path d="M1373 540 c-61 -37 -81 -116 -43 -177 50 -83 170 -83 220 0 70 114
-63 247 -177 177z"/>
<path d="M2039 543 c-38 -23 -59 -65 -59 -116 0 -134 186 -175 241 -53 23 51
23 69 2 113 -31 66 -123 94 -184 56z"/>
<path d="M2684 550 c-11 -4 -33 -22 -47 -40 -21 -25 -27 -42 -27 -82 0 -43 4
-54 33 -83 57 -57 132 -59 186 -4 100 99 -13 263 -145 209z"/>
<path d="M3299 521 c-35 -35 -39 -44 -39 -88 0 -138 179 -183 240 -62 24 47
25 71 3 116 -21 46 -67 73 -122 73 -37 0 -49 -6 -82 -39z"/>
</g>
</svg>
